<svg xmlns="http://www.w3.org/2000/svg" version="1.1" xmlns:xlink="http://www.w3.org/1999/xlink" xmlns:svgjs="http://svgjs.com/svgjs" width="1440" height="560" preserveAspectRatio="none" viewBox="0 0 1440 560"><g mask="url(&quot;#SvgjsMask1006&quot;)" fill="none"><rect width="1440" height="560" x="0" y="0" fill="rgba(1, 9, 84, 1)"></rect><path d="M-61.39 352.93L-61.39 352.93" stroke="rgba(28, 61, 108, 1)" stroke-width="1.5"></path><path d="M-61.39 352.93L100.63 379.53" stroke="rgba(28, 61, 108, 1)" stroke-width="1.5"></path><path d="M-61.39 352.93L-87.34 539.78" stroke="rgba(28, 61, 108, 1)" stroke-width="1.5"></path><path d="M-61.39 352.93L47.67 539.89" stroke="rgba(28, 61, 108, 1)" stroke-width="1.5"></path><path d="M-61.39 352.93L215.4 385.24" stroke="rgba(28, 61, 108, 1)" stroke-width="1.5"></path><path d="M-61.39 352.93L-47.01 644.08" stroke="rgba(28, 61, 108, 1)" stroke-width="1.5"></path><path d="M-61.39 352.93L52.98 640.91" stroke="rgba(28, 61, 108, 1)" stroke-width="1.5"></path><path d="M-87.34 539.78L-87.34 539.78" stroke="rgba(28, 61, 108, 1)" stroke-width="1.5"></path><path d="M-87.34 539.78L-47.01 644.08" stroke="rgba(28, 61, 108, 1)" stroke-width="1.5"></path><path d="M-87.34 539.78L47.67 539.89" stroke="rgba(28, 61, 108, 1)" stroke-width="1.5"></path><path d="M-87.34 539.78L52.98 640.91" stroke="rgba(28, 61, 108, 1)" stroke-width="1.5"></path><path d="M-47.01 644.08L-47.01 644.08" stroke="rgba(28, 61, 108, 1)" stroke-width="1.5"></path><path d="M-47.01 644.08L52.98 640.91" stroke="rgba(28, 61, 108, 1)" stroke-width="1.5"></path><path d="M-47.01 644.08L47.67 539.89" stroke="rgba(28, 61, 108, 1)" stroke-width="1.5"></path><path d="M100.63 379.53L100.63 379.53" stroke="rgba(28, 61, 108, 1)" stroke-width="1.5"></path><path d="M100.63 379.53L215.4 385.24" stroke="rgba(28, 61, 108, 1)" stroke-width="1.5"></path><path d="M100.63 379.53L47.67 539.89" stroke="rgba(28, 61, 108, 1)" stroke-width="1.5"></path><path d="M100.63 379.53L221.64 508.32" stroke="rgba(28, 61, 108, 1)" stroke-width="1.5"></path><path d="M47.67 539.89L47.67 539.89" stroke="rgba(28, 61, 108, 1)" stroke-width="1.5"></path><path d="M47.67 539.89L52.98 640.91" stroke="rgba(28, 61, 108, 1)" stroke-width="1.5"></path><path d="M47.67 539.89L221.64 508.32" stroke="rgba(28, 61, 108, 1)" stroke-width="1.5"></path><path d="M47.67 539.89L215.92 658.33" stroke="rgba(28, 61, 108, 1)" stroke-width="1.5"></path><path d="M52.98 640.91L52.98 640.91" stroke="rgba(28, 61, 108, 1)" stroke-width="1.5"></path><path d="M52.98 640.91L215.92 658.33" stroke="rgba(28, 61, 108, 1)" stroke-width="1.5"></path><path d="M52.98 640.91L221.64 508.32" stroke="rgba(28, 61, 108, 1)" stroke-width="1.5"></path><path d="M215.4 385.24L215.4 385.24" stroke="rgba(28, 61, 108, 1)" stroke-width="1.5"></path><path d="M215.4 385.24L221.64 508.32" stroke="rgba(28, 61, 108, 1)" stroke-width="1.5"></path><path d="M221.64 508.32L221.64 508.32" stroke="rgba(28, 61, 108, 1)" stroke-width="1.5"></path><path d="M221.64 508.32L350.17 507.73" stroke="rgba(28, 61, 108, 1)" stroke-width="1.5"></path><path d="M221.64 508.32L215.92 658.33" stroke="rgba(28, 61, 108, 1)" stroke-width="1.5"></path><path d="M215.92 658.33L215.92 658.33" stroke="rgba(28, 61, 108, 1)" stroke-width="1.5"></path><path d="M339.73 371.42L339.73 371.42" stroke="rgba(28, 61, 108, 1)" stroke-width="1.5"></path><path d="M339.73 371.42L215.4 385.24" stroke="rgba(28, 61, 108, 1)" stroke-width="1.5"></path><path d="M339.73 371.42L350.17 507.73" stroke="rgba(28, 61, 108, 1)" stroke-width="1.5"></path><path d="M350.17 507.73L350.17 507.73" stroke="rgba(28, 61, 108, 1)" stroke-width="1.5"></path><path d="M350.17 507.73L408.45 639.84" stroke="rgba(28, 61, 108, 1)" stroke-width="1.5"></path><path d="M350.17 507.73L500.81 526.07" stroke="rgba(28, 61, 108, 1)" stroke-width="1.5"></path><path d="M350.17 507.73L215.4 385.24" stroke="rgba(28, 61, 108, 1)" stroke-width="1.5"></path><path d="M350.17 507.73L215.92 658.33" stroke="rgba(28, 61, 108, 1)" stroke-width="1.5"></path><path d="M408.45 639.84L408.45 639.84" stroke="rgba(28, 61, 108, 1)" stroke-width="1.5"></path><path d="M408.45 639.84L550.33 641.18" stroke="rgba(28, 61, 108, 1)" stroke-width="1.5"></path><path d="M514.68 379.16L514.68 379.16" stroke="rgba(28, 61, 108, 1)" stroke-width="1.5"></path><path d="M514.68 379.16L500.81 526.07" stroke="rgba(28, 61, 108, 1)" stroke-width="1.5"></path><path d="M514.68 379.16L689.53 386.91" stroke="rgba(28, 61, 108, 1)" stroke-width="1.5"></path><path d="M514.68 379.16L339.73 371.42" stroke="rgba(28, 61, 108, 1)" stroke-width="1.5"></path><path d="M514.68 379.16L661.09 254.09" stroke="rgba(28, 61, 108, 1)" stroke-width="1.5"></path><path d="M514.68 379.16L664.63 518.13" stroke="rgba(28, 61, 108, 1)" stroke-width="1.5"></path><path d="M500.81 526.07L500.81 526.07" stroke="rgba(28, 61, 108, 1)" stroke-width="1.5"></path><path d="M500.81 526.07L550.33 641.18" stroke="rgba(28, 61, 108, 1)" stroke-width="1.5"></path><path d="M500.81 526.07L408.45 639.84" stroke="rgba(28, 61, 108, 1)" stroke-width="1.5"></path><path d="M500.81 526.07L664.63 518.13" stroke="rgba(28, 61, 108, 1)" stroke-width="1.5"></path><path d="M500.81 526.07L339.73 371.42" stroke="rgba(28, 61, 108, 1)" stroke-width="1.5"></path><path d="M550.33 641.18L550.33 641.18" stroke="rgba(28, 61, 108, 1)" stroke-width="1.5"></path><path d="M550.33 641.18L667.43 697.76" stroke="rgba(28, 61, 108, 1)" stroke-width="1.5"></path><path d="M550.33 641.18L664.63 518.13" stroke="rgba(28, 61, 108, 1)" stroke-width="1.5"></path><path d="M661.09 254.09L661.09 254.09" stroke="rgba(28, 61, 108, 1)" stroke-width="1.5"></path><path d="M661.09 254.09L689.53 386.91" stroke="rgba(28, 61, 108, 1)" stroke-width="1.5"></path><path d="M689.53 386.91L689.53 386.91" stroke="rgba(28, 61, 108, 1)" stroke-width="1.5"></path><path d="M689.53 386.91L806.4 389.63" stroke="rgba(28, 61, 108, 1)" stroke-width="1.5"></path><path d="M689.53 386.91L664.63 518.13" stroke="rgba(28, 61, 108, 1)" stroke-width="1.5"></path><path d="M689.53 386.91L808.3 556.81" stroke="rgba(28, 61, 108, 1)" stroke-width="1.5"></path><path d="M664.63 518.13L664.63 518.13" stroke="rgba(28, 61, 108, 1)" stroke-width="1.5"></path><path d="M664.63 518.13L808.3 556.81" stroke="rgba(28, 61, 108, 1)" stroke-width="1.5"></path><path d="M667.43 697.76L667.43 697.76" stroke="rgba(28, 61, 108, 1)" stroke-width="1.5"></path><path d="M667.43 697.76L819.2 699.83" stroke="rgba(28, 61, 108, 1)" stroke-width="1.5"></path><path d="M667.43 697.76L664.63 518.13" stroke="rgba(28, 61, 108, 1)" stroke-width="1.5"></path><path d="M854.15 211.59L854.15 211.59" stroke="rgba(28, 61, 108, 1)" stroke-width="1.5"></path><path d="M854.15 211.59L1002.54 200.14" stroke="rgba(28, 61, 108, 1)" stroke-width="1.5"></path><path d="M854.15 211.59L806.4 389.63" stroke="rgba(28, 61, 108, 1)" stroke-width="1.5"></path><path d="M854.15 211.59L661.09 254.09" stroke="rgba(28, 61, 108, 1)" stroke-width="1.5"></path><path d="M854.15 211.59L1005.01 82.05" stroke="rgba(28, 61, 108, 1)" stroke-width="1.5"></path><path d="M854.15 211.59L951.52 386.9" stroke="rgba(28, 61, 108, 1)" stroke-width="1.5"></path><path d="M806.4 389.63L806.4 389.63" stroke="rgba(28, 61, 108, 1)" stroke-width="1.5"></path><path d="M806.4 389.63L951.52 386.9" stroke="rgba(28, 61, 108, 1)" stroke-width="1.5"></path><path d="M806.4 389.63L808.3 556.81" stroke="rgba(28, 61, 108, 1)" stroke-width="1.5"></path><path d="M806.4 389.63L664.63 518.13" stroke="rgba(28, 61, 108, 1)" stroke-width="1.5"></path><path d="M806.4 389.63L661.09 254.09" stroke="rgba(28, 61, 108, 1)" stroke-width="1.5"></path><path d="M808.3 556.81L808.3 556.81" stroke="rgba(28, 61, 108, 1)" stroke-width="1.5"></path><path d="M808.3 556.81L819.2 699.83" stroke="rgba(28, 61, 108, 1)" stroke-width="1.5"></path><path d="M808.3 556.81L950.74 534.37" stroke="rgba(28, 61, 108, 1)" stroke-width="1.5"></path><path d="M819.2 699.83L819.2 699.83" stroke="rgba(28, 61, 108, 1)" stroke-width="1.5"></path><path d="M819.2 699.83L969.08 701.94" stroke="rgba(28, 61, 108, 1)" stroke-width="1.5"></path><path d="M992.85 -77.11L992.85 -77.11" stroke="rgba(28, 61, 108, 1)" stroke-width="1.5"></path><path d="M992.85 -77.11L1114.22 -45.13" stroke="rgba(28, 61, 108, 1)" stroke-width="1.5"></path><path d="M992.85 -77.11L1005.01 82.05" stroke="rgba(28, 61, 108, 1)" stroke-width="1.5"></path><path d="M992.85 -77.11L1154.52 97.21" stroke="rgba(28, 61, 108, 1)" stroke-width="1.5"></path><path d="M1005.01 82.05L1005.01 82.05" stroke="rgba(28, 61, 108, 1)" stroke-width="1.5"></path><path d="M1005.01 82.05L1002.54 200.14" stroke="rgba(28, 61, 108, 1)" stroke-width="1.5"></path><path d="M1005.01 82.05L1087.58 205.28" stroke="rgba(28, 61, 108, 1)" stroke-width="1.5"></path><path d="M1002.54 200.14L1002.54 200.14" stroke="rgba(28, 61, 108, 1)" stroke-width="1.5"></path><path d="M1002.54 200.14L1087.58 205.28" stroke="rgba(28, 61, 108, 1)" stroke-width="1.5"></path><path d="M1002.54 200.14L1154.52 97.21" stroke="rgba(28, 61, 108, 1)" stroke-width="1.5"></path><path d="M1002.54 200.14L951.52 386.9" stroke="rgba(28, 61, 108, 1)" stroke-width="1.5"></path><path d="M951.52 386.9L951.52 386.9" stroke="rgba(28, 61, 108, 1)" stroke-width="1.5"></path><path d="M951.52 386.9L950.74 534.37" stroke="rgba(28, 61, 108, 1)" stroke-width="1.5"></path><path d="M951.52 386.9L1109.52 400.03" stroke="rgba(28, 61, 108, 1)" stroke-width="1.5"></path><path d="M950.74 534.37L950.74 534.37" stroke="rgba(28, 61, 108, 1)" stroke-width="1.5"></path><path d="M950.74 534.37L969.08 701.94" stroke="rgba(28, 61, 108, 1)" stroke-width="1.5"></path><path d="M969.08 701.94L969.08 701.94" stroke="rgba(28, 61, 108, 1)" stroke-width="1.5"></path><path d="M969.08 701.94L1137.37 710.74" stroke="rgba(28, 61, 108, 1)" stroke-width="1.5"></path><path d="M969.08 701.94L808.3 556.81" stroke="rgba(28, 61, 108, 1)" stroke-width="1.5"></path><path d="M969.08 701.94L1145.89 545.58" stroke="rgba(28, 61, 108, 1)" stroke-width="1.5"></path><path d="M969.08 701.94L1238.75 674.32" stroke="rgba(28, 61, 108, 1)" stroke-width="1.5"></path><path d="M1114.22 -45.13L1114.22 -45.13" stroke="rgba(28, 61, 108, 1)" stroke-width="1.5"></path><path d="M1114.22 -45.13L1244.26 -84.7" stroke="rgba(28, 61, 108, 1)" stroke-width="1.5"></path><path d="M1114.22 -45.13L1154.52 97.21" stroke="rgba(28, 61, 108, 1)" stroke-width="1.5"></path><path d="M1114.22 -45.13L1005.01 82.05" stroke="rgba(28, 61, 108, 1)" stroke-width="1.5"></path><path d="M1114.22 -45.13L1308.61 75.12" stroke="rgba(28, 61, 108, 1)" stroke-width="1.5"></path><path d="M1154.52 97.21L1154.52 97.21" stroke="rgba(28, 61, 108, 1)" stroke-width="1.5"></path><path d="M1154.52 97.21L1087.58 205.28" stroke="rgba(28, 61, 108, 1)" stroke-width="1.5"></path><path d="M1154.52 97.21L1005.01 82.05" stroke="rgba(28, 61, 108, 1)" stroke-width="1.5"></path><path d="M1154.52 97.21L1308.61 75.12" stroke="rgba(28, 61, 108, 1)" stroke-width="1.5"></path><path d="M1154.52 97.21L1272 217.67" stroke="rgba(28, 61, 108, 1)" stroke-width="1.5"></path><path d="M1087.58 205.28L1087.58 205.28" stroke="rgba(28, 61, 108, 1)" stroke-width="1.5"></path><path d="M1087.58 205.28L1272 217.67" stroke="rgba(28, 61, 108, 1)" stroke-width="1.5"></path><path d="M1087.58 205.28L1109.52 400.03" stroke="rgba(28, 61, 108, 1)" stroke-width="1.5"></path><path d="M1087.58 205.28L951.52 386.9" stroke="rgba(28, 61, 108, 1)" stroke-width="1.5"></path><path d="M1109.52 400.03L1109.52 400.03" stroke="rgba(28, 61, 108, 1)" stroke-width="1.5"></path><path d="M1109.52 400.03L1145.89 545.58" stroke="rgba(28, 61, 108, 1)" stroke-width="1.5"></path><path d="M1145.89 545.58L1145.89 545.58" stroke="rgba(28, 61, 108, 1)" stroke-width="1.5"></path><path d="M1145.89 545.58L1238.75 674.32" stroke="rgba(28, 61, 108, 1)" stroke-width="1.5"></path><path d="M1137.37 710.74L1137.37 710.74" stroke="rgba(28, 61, 108, 1)" stroke-width="1.5"></path><path d="M1137.37 710.74L1238.75 674.32" stroke="rgba(28, 61, 108, 1)" stroke-width="1.5"></path><path d="M1244.26 -84.7L1244.26 -84.7" stroke="rgba(28, 61, 108, 1)" stroke-width="1.5"></path><path d="M1244.26 -84.7L1410.76 -112.1" stroke="rgba(28, 61, 108, 1)" stroke-width="1.5"></path><path d="M1244.26 -84.7L1308.61 75.12" stroke="rgba(28, 61, 108, 1)" stroke-width="1.5"></path><path d="M1308.61 75.12L1308.61 75.12" stroke="rgba(28, 61, 108, 1)" stroke-width="1.5"></path><path d="M1308.61 75.12L1451.36 94.1" stroke="rgba(28, 61, 108, 1)" stroke-width="1.5"></path><path d="M1308.61 75.12L1272 217.67" stroke="rgba(28, 61, 108, 1)" stroke-width="1.5"></path><path d="M1308.61 75.12L1443.03 213.19" stroke="rgba(28, 61, 108, 1)" stroke-width="1.5"></path><path d="M1272 217.67L1272 217.67" stroke="rgba(28, 61, 108, 1)" stroke-width="1.5"></path><path d="M1272 217.67L1443.03 213.19" stroke="rgba(28, 61, 108, 1)" stroke-width="1.5"></path><path d="M1272 217.67L1435.26 351.59" stroke="rgba(28, 61, 108, 1)" stroke-width="1.5"></path><path d="M1307.99 488.75L1307.99 488.75" stroke="rgba(28, 61, 108, 1)" stroke-width="1.5"></path><path d="M1307.99 488.75L1436.87 549.08" stroke="rgba(28, 61, 108, 1)" stroke-width="1.5"></path><path d="M1307.99 488.75L1145.89 545.58" stroke="rgba(28, 61, 108, 1)" stroke-width="1.5"></path><path d="M1307.99 488.75L1435.26 351.59" stroke="rgba(28, 61, 108, 1)" stroke-width="1.5"></path><path d="M1238.75 674.32L1238.75 674.32" stroke="rgba(28, 61, 108, 1)" stroke-width="1.5"></path><path d="M1238.75 674.32L1436.59 671.65" stroke="rgba(28, 61, 108, 1)" stroke-width="1.5"></path><path d="M1238.75 674.32L1307.99 488.75" stroke="rgba(28, 61, 108, 1)" stroke-width="1.5"></path><path d="M1410.76 -112.1L1410.76 -112.1" stroke="rgba(28, 61, 108, 1)" stroke-width="1.5"></path><path d="M1410.76 -112.1L1537.79 -85.75" stroke="rgba(28, 61, 108, 1)" stroke-width="1.5"></path><path d="M1410.76 -112.1L1451.36 94.1" stroke="rgba(28, 61, 108, 1)" stroke-width="1.5"></path><path d="M1410.76 -112.1L1308.61 75.12" stroke="rgba(28, 61, 108, 1)" stroke-width="1.5"></path><path d="M1451.36 94.1L1451.36 94.1" stroke="rgba(28, 61, 108, 1)" stroke-width="1.5"></path><path d="M1451.36 94.1L1443.03 213.19" stroke="rgba(28, 61, 108, 1)" stroke-width="1.5"></path><path d="M1451.36 94.1L1591.63 81.25" stroke="rgba(28, 61, 108, 1)" stroke-width="1.5"></path><path d="M1451.36 94.1L1582.66 215.76" stroke="rgba(28, 61, 108, 1)" stroke-width="1.5"></path><path d="M1451.36 94.1L1537.79 -85.75" stroke="rgba(28, 61, 108, 1)" stroke-width="1.5"></path><path d="M1443.03 213.19L1443.03 213.19" stroke="rgba(28, 61, 108, 1)" stroke-width="1.5"></path><path d="M1443.03 213.19L1435.26 351.59" stroke="rgba(28, 61, 108, 1)" stroke-width="1.5"></path><path d="M1435.26 351.59L1435.26 351.59" stroke="rgba(28, 61, 108, 1)" stroke-width="1.5"></path><path d="M1435.26 351.59L1552.7 378.05" stroke="rgba(28, 61, 108, 1)" stroke-width="1.5"></path><path d="M1435.26 351.59L1436.87 549.08" stroke="rgba(28, 61, 108, 1)" stroke-width="1.5"></path><path d="M1436.87 549.08L1436.87 549.08" stroke="rgba(28, 61, 108, 1)" stroke-width="1.5"></path><path d="M1436.87 549.08L1436.59 671.65" stroke="rgba(28, 61, 108, 1)" stroke-width="1.5"></path><path d="M1436.87 549.08L1560.4 516.49" stroke="rgba(28, 61, 108, 1)" stroke-width="1.5"></path><path d="M1436.87 549.08L1586.77 675.1" stroke="rgba(28, 61, 108, 1)" stroke-width="1.5"></path><path d="M1436.87 549.08L1552.7 378.05" stroke="rgba(28, 61, 108, 1)" stroke-width="1.5"></path><path d="M1436.59 671.65L1436.59 671.65" stroke="rgba(28, 61, 108, 1)" stroke-width="1.5"></path><path d="M1436.59 671.65L1586.77 675.1" stroke="rgba(28, 61, 108, 1)" stroke-width="1.5"></path><path d="M1537.79 -85.75L1537.79 -85.75" stroke="rgba(28, 61, 108, 1)" stroke-width="1.5"></path><path d="M1537.79 -85.75L1591.63 81.25" stroke="rgba(28, 61, 108, 1)" stroke-width="1.5"></path><path d="M1537.79 -85.75L1308.61 75.12" stroke="rgba(28, 61, 108, 1)" stroke-width="1.5"></path><path d="M1537.79 -85.75L1244.26 -84.7" stroke="rgba(28, 61, 108, 1)" stroke-width="1.5"></path><path d="M1537.79 -85.75L1582.66 215.76" stroke="rgba(28, 61, 108, 1)" stroke-width="1.5"></path><path d="M1591.63 81.25L1591.63 81.25" stroke="rgba(28, 61, 108, 1)" stroke-width="1.5"></path><path d="M1591.63 81.25L1582.66 215.76" stroke="rgba(28, 61, 108, 1)" stroke-width="1.5"></path><path d="M1591.63 81.25L1443.03 213.19" stroke="rgba(28, 61, 108, 1)" stroke-width="1.5"></path><path d="M1582.66 215.76L1582.66 215.76" stroke="rgba(28, 61, 108, 1)" stroke-width="1.5"></path><path d="M1582.66 215.76L1443.03 213.19" stroke="rgba(28, 61, 108, 1)" stroke-width="1.5"></path><path d="M1552.7 378.05L1552.7 378.05" stroke="rgba(28, 61, 108, 1)" stroke-width="1.5"></path><path d="M1552.7 378.05L1560.4 516.49" stroke="rgba(28, 61, 108, 1)" stroke-width="1.5"></path><path d="M1560.4 516.49L1560.4 516.49" stroke="rgba(28, 61, 108, 1)" stroke-width="1.5"></path><path d="M1560.4 516.49L1586.77 675.1" stroke="rgba(28, 61, 108, 1)" stroke-width="1.5"></path><path d="M1560.4 516.49L1436.59 671.65" stroke="rgba(28, 61, 108, 1)" stroke-width="1.5"></path><path d="M1560.4 516.49L1435.26 351.59" stroke="rgba(28, 61, 108, 1)" stroke-width="1.5"></path><path d="M1560.4 516.49L1307.99 488.75" stroke="rgba(28, 61, 108, 1)" stroke-width="1.5"></path><path d="M1586.77 675.1L1586.77 675.1" stroke="rgba(28, 61, 108, 1)" stroke-width="1.5"></path><circle r="5" cx="-61.39" cy="352.93" fill="rgba(28, 61, 108, 1)"></circle><circle r="5" cx="-87.34" cy="539.78" fill="rgba(28, 61, 108, 1)"></circle><circle r="5" cx="-47.01" cy="644.08" fill="rgba(28, 61, 108, 1)"></circle><circle r="5" cx="100.63" cy="379.53" fill="rgba(28, 61, 108, 1)"></circle><circle r="5" cx="47.67" cy="539.89" fill="rgba(28, 61, 108, 1)"></circle><circle r="5" cx="52.98" cy="640.91" fill="rgba(28, 61, 108, 1)"></circle><circle r="5" cx="215.4" cy="385.24" fill="rgba(28, 61, 108, 1)"></circle><circle r="5" cx="221.64" cy="508.32" fill="rgba(28, 61, 108, 1)"></circle><circle r="5" cx="215.92" cy="658.33" fill="rgba(28, 61, 108, 1)"></circle><circle r="5" cx="339.73" cy="371.42" fill="rgba(28, 61, 108, 1)"></circle><circle r="5" cx="350.17" cy="507.73" fill="rgba(28, 61, 108, 1)"></circle><circle r="5" cx="408.45" cy="639.84" fill="rgba(28, 61, 108, 1)"></circle><circle r="5" cx="514.68" cy="379.16" fill="rgba(28, 61, 108, 1)"></circle><circle r="5" cx="500.81" cy="526.07" fill="rgba(28, 61, 108, 1)"></circle><circle r="5" cx="550.33" cy="641.18" fill="rgba(28, 61, 108, 1)"></circle><circle r="5" cx="661.09" cy="254.09" fill="rgba(28, 61, 108, 1)"></circle><circle r="5" cx="689.53" cy="386.91" fill="rgba(28, 61, 108, 1)"></circle><circle r="5" cx="664.63" cy="518.13" fill="rgba(28, 61, 108, 1)"></circle><circle r="5" cx="667.43" cy="697.76" fill="rgba(28, 61, 108, 1)"></circle><circle r="5" cx="854.15" cy="211.59" fill="rgba(28, 61, 108, 1)"></circle><circle r="5" cx="806.4" cy="389.63" fill="rgba(28, 61, 108, 1)"></circle><circle r="5" cx="808.3" cy="556.81" fill="rgba(28, 61, 108, 1)"></circle><circle r="5" cx="819.2" cy="699.83" fill="rgba(28, 61, 108, 1)"></circle><circle r="5" cx="992.85" cy="-77.11" fill="rgba(28, 61, 108, 1)"></circle><circle r="5" cx="1005.01" cy="82.05" fill="rgba(28, 61, 108, 1)"></circle><circle r="5" cx="1002.54" cy="200.14" fill="rgba(28, 61, 108, 1)"></circle><circle r="5" cx="951.52" cy="386.9" fill="rgba(28, 61, 108, 1)"></circle><circle r="5" cx="950.74" cy="534.37" fill="rgba(28, 61, 108, 1)"></circle><circle r="5" cx="969.08" cy="701.94" fill="rgba(28, 61, 108, 1)"></circle><circle r="5" cx="1114.22" cy="-45.13" fill="rgba(28, 61, 108, 1)"></circle><circle r="5" cx="1154.52" cy="97.21" fill="rgba(28, 61, 108, 1)"></circle><circle r="5" cx="1087.58" cy="205.28" fill="rgba(28, 61, 108, 1)"></circle><circle r="5" cx="1109.52" cy="400.03" fill="rgba(28, 61, 108, 1)"></circle><circle r="5" cx="1145.89" cy="545.58" fill="rgba(28, 61, 108, 1)"></circle><circle r="5" cx="1137.37" cy="710.74" fill="rgba(28, 61, 108, 1)"></circle><circle r="5" cx="1244.26" cy="-84.7" fill="rgba(28, 61, 108, 1)"></circle><circle r="5" cx="1308.61" cy="75.12" fill="rgba(28, 61, 108, 1)"></circle><circle r="5" cx="1272" cy="217.67" fill="rgba(28, 61, 108, 1)"></circle><circle r="5" cx="1307.99" cy="488.75" fill="rgba(28, 61, 108, 1)"></circle><circle r="5" cx="1238.75" cy="674.32" fill="rgba(28, 61, 108, 1)"></circle><circle r="5" cx="1410.76" cy="-112.1" fill="rgba(28, 61, 108, 1)"></circle><circle r="5" cx="1451.36" cy="94.1" fill="rgba(28, 61, 108, 1)"></circle><circle r="5" cx="1443.03" cy="213.19" fill="rgba(28, 61, 108, 1)"></circle><circle r="5" cx="1435.26" cy="351.59" fill="rgba(28, 61, 108, 1)"></circle><circle r="5" cx="1436.87" cy="549.08" fill="rgba(28, 61, 108, 1)"></circle><circle r="5" cx="1436.59" cy="671.65" fill="rgba(28, 61, 108, 1)"></circle><circle r="5" cx="1537.79" cy="-85.75" fill="rgba(28, 61, 108, 1)"></circle><circle r="5" cx="1591.63" cy="81.25" fill="rgba(28, 61, 108, 1)"></circle><circle r="5" cx="1582.66" cy="215.76" fill="rgba(28, 61, 108, 1)"></circle><circle r="5" cx="1552.7" cy="378.05" fill="rgba(28, 61, 108, 1)"></circle><circle r="5" cx="1560.4" cy="516.49" fill="rgba(28, 61, 108, 1)"></circle><circle r="5" cx="1586.77" cy="675.1" fill="rgba(28, 61, 108, 1)"></circle><path d="M-40.58 707.95L-40.58 707.95" stroke="hsl(201, 82.5%, 58.4%)" stroke-width="1.5"></path><path d="M-40.58 707.95L105.57 687.86" stroke="hsl(201, 82.5%, 58.4%)" stroke-width="1.5"></path><path d="M-40.58 707.95L-41.19 549.07" stroke="hsl(201, 82.5%, 58.4%)" stroke-width="1.5"></path><path d="M-40.58 707.95L67.59 539.66" stroke="hsl(201, 82.5%, 58.4%)" stroke-width="1.5"></path><path d="M-40.58 707.95L209.4 706.18" stroke="hsl(201, 82.5%, 58.4%)" stroke-width="1.5"></path><path d="M560.97 501.58L560.97 501.58" stroke="hsl(201, 82.5%, 58.4%)" stroke-width="1.5"></path><path d="M560.97 501.58L700.41 526.82" stroke="hsl(201, 82.5%, 58.4%)" stroke-width="1.5"></path><path d="M560.97 501.58L524.6 676.31" stroke="hsl(201, 82.5%, 58.4%)" stroke-width="1.5"></path><path d="M560.97 501.58L711.23 380.1" stroke="hsl(201, 82.5%, 58.4%)" stroke-width="1.5"></path><path d="M560.97 501.58L352.08 548.82" stroke="hsl(201, 82.5%, 58.4%)" stroke-width="1.5"></path><path d="M560.97 501.58L705.82 661.51" stroke="hsl(201, 82.5%, 58.4%)" stroke-width="1.5"></path><path d="M711.23 380.1L711.23 380.1" stroke="hsl(201, 82.5%, 58.4%)" stroke-width="1.5"></path><path d="M711.23 380.1L841.97 410.29" stroke="hsl(201, 82.5%, 58.4%)" stroke-width="1.5"></path><path d="M711.23 380.1L700.41 526.82" stroke="hsl(201, 82.5%, 58.4%)" stroke-width="1.5"></path><path d="M980.97 490.68L980.97 490.68" stroke="hsl(201, 82.5%, 58.4%)" stroke-width="1.5"></path><path d="M980.97 490.68L1096.28 522.37" stroke="hsl(201, 82.5%, 58.4%)" stroke-width="1.5"></path><path d="M980.97 490.68L962.67 372.26" stroke="hsl(201, 82.5%, 58.4%)" stroke-width="1.5"></path><path d="M1009.72 641.39L1009.72 641.39" stroke="hsl(201, 82.5%, 58.4%)" stroke-width="1.5"></path><path d="M1009.72 641.39L1092.81 656.57" stroke="hsl(201, 82.5%, 58.4%)" stroke-width="1.5"></path><path d="M1009.72 641.39L1096.28 522.37" stroke="hsl(201, 82.5%, 58.4%)" stroke-width="1.5"></path><path d="M1009.72 641.39L980.97 490.68" stroke="hsl(201, 82.5%, 58.4%)" stroke-width="1.5"></path><path d="M1009.72 641.39L816.74 556.09" stroke="hsl(201, 82.5%, 58.4%)" stroke-width="1.5"></path><path d="M1009.72 641.39L804.68 695.4" stroke="hsl(201, 82.5%, 58.4%)" stroke-width="1.5"></path><path d="M1009.72 641.39L962.67 372.26" stroke="hsl(201, 82.5%, 58.4%)" stroke-width="1.5"></path><path d="M1426 347.52L1426 347.52" stroke="hsl(201, 82.5%, 58.4%)" stroke-width="1.5"></path><path d="M1426 347.52L1411.45 228.34" stroke="hsl(201, 82.5%, 58.4%)" stroke-width="1.5"></path><path d="M1426 347.52L1561.05 356.4" stroke="hsl(201, 82.5%, 58.4%)" stroke-width="1.5"></path><path d="M1426 347.52L1399.47 495.15" stroke="hsl(201, 82.5%, 58.4%)" stroke-width="1.5"></path><path d="M1426 347.52L1263.23 361.7" stroke="hsl(201, 82.5%, 58.4%)" stroke-width="1.5"></path><path d="M1426 347.52L1288.8 237.9" stroke="hsl(201, 82.5%, 58.4%)" stroke-width="1.5"></path><path d="M1585.17 71.66L1585.17 71.66" stroke="hsl(201, 82.5%, 58.4%)" stroke-width="1.5"></path><path d="M1585.17 71.66L1457.01 46.67" stroke="hsl(201, 82.5%, 58.4%)" stroke-width="1.5"></path><path d="M1585.17 71.66L1585.96 243.36" stroke="hsl(201, 82.5%, 58.4%)" stroke-width="1.5"></path><path d="M1585.17 71.66L1424.3 -60.59" stroke="hsl(201, 82.5%, 58.4%)" stroke-width="1.5"></path><path d="M1585.17 71.66L1411.45 228.34" stroke="hsl(201, 82.5%, 58.4%)" stroke-width="1.5"></path><path d="M-41.19 549.07L-41.19 549.07" stroke="hsl(201, 82.5%, 58.4%)" stroke-width="1.5"></path><path d="M-41.19 549.07L67.59 539.66" stroke="hsl(201, 82.5%, 58.4%)" stroke-width="1.5"></path><path d="M-41.19 549.07L105.57 687.86" stroke="hsl(201, 82.5%, 58.4%)" stroke-width="1.5"></path><path d="M-41.19 549.07L196.4 489.57" stroke="hsl(201, 82.5%, 58.4%)" stroke-width="1.5"></path><path d="M-41.19 549.07L209.4 706.18" stroke="hsl(201, 82.5%, 58.4%)" stroke-width="1.5"></path><path d="M-41.19 549.07L352.08 548.82" stroke="hsl(201, 82.5%, 58.4%)" stroke-width="1.5"></path><path d="M67.59 539.66L67.59 539.66" stroke="hsl(201, 82.5%, 58.4%)" stroke-width="1.5"></path><path d="M67.59 539.66L196.4 489.57" stroke="hsl(201, 82.5%, 58.4%)" stroke-width="1.5"></path><path d="M67.59 539.66L105.57 687.86" stroke="hsl(201, 82.5%, 58.4%)" stroke-width="1.5"></path><path d="M67.59 539.66L209.4 706.18" stroke="hsl(201, 82.5%, 58.4%)" stroke-width="1.5"></path><path d="M67.59 539.66L352.08 548.82" stroke="hsl(201, 82.5%, 58.4%)" stroke-width="1.5"></path><path d="M105.57 687.86L105.57 687.86" stroke="hsl(201, 82.5%, 58.4%)" stroke-width="1.5"></path><path d="M105.57 687.86L209.4 706.18" stroke="hsl(201, 82.5%, 58.4%)" stroke-width="1.5"></path><path d="M196.4 489.57L196.4 489.57" stroke="hsl(201, 82.5%, 58.4%)" stroke-width="1.5"></path><path d="M196.4 489.57L352.08 548.82" stroke="hsl(201, 82.5%, 58.4%)" stroke-width="1.5"></path><path d="M196.4 489.57L209.4 706.18" stroke="hsl(201, 82.5%, 58.4%)" stroke-width="1.5"></path><path d="M209.4 706.18L209.4 706.18" stroke="hsl(201, 82.5%, 58.4%)" stroke-width="1.5"></path><path d="M209.4 706.18L387.73 704.94" stroke="hsl(201, 82.5%, 58.4%)" stroke-width="1.5"></path><path d="M209.4 706.18L352.08 548.82" stroke="hsl(201, 82.5%, 58.4%)" stroke-width="1.5"></path><path d="M352.08 548.82L352.08 548.82" stroke="hsl(201, 82.5%, 58.4%)" stroke-width="1.5"></path><path d="M352.08 548.82L387.73 704.94" stroke="hsl(201, 82.5%, 58.4%)" stroke-width="1.5"></path><path d="M387.73 704.94L387.73 704.94" stroke="hsl(201, 82.5%, 58.4%)" stroke-width="1.5"></path><path d="M387.73 704.94L524.6 676.31" stroke="hsl(201, 82.5%, 58.4%)" stroke-width="1.5"></path><path d="M524.6 676.31L524.6 676.31" stroke="hsl(201, 82.5%, 58.4%)" stroke-width="1.5"></path><path d="M700.41 526.82L700.41 526.82" stroke="hsl(201, 82.5%, 58.4%)" stroke-width="1.5"></path><path d="M700.41 526.82L816.74 556.09" stroke="hsl(201, 82.5%, 58.4%)" stroke-width="1.5"></path><path d="M700.41 526.82L705.82 661.51" stroke="hsl(201, 82.5%, 58.4%)" stroke-width="1.5"></path><path d="M705.82 661.51L705.82 661.51" stroke="hsl(201, 82.5%, 58.4%)" stroke-width="1.5"></path><path d="M705.82 661.51L804.68 695.4" stroke="hsl(201, 82.5%, 58.4%)" stroke-width="1.5"></path><path d="M705.82 661.51L816.74 556.09" stroke="hsl(201, 82.5%, 58.4%)" stroke-width="1.5"></path><path d="M705.82 661.51L524.6 676.31" stroke="hsl(201, 82.5%, 58.4%)" stroke-width="1.5"></path><path d="M841.97 410.29L841.97 410.29" stroke="hsl(201, 82.5%, 58.4%)" stroke-width="1.5"></path><path d="M841.97 410.29L962.67 372.26" stroke="hsl(201, 82.5%, 58.4%)" stroke-width="1.5"></path><path d="M816.74 556.09L816.74 556.09" stroke="hsl(201, 82.5%, 58.4%)" stroke-width="1.5"></path><path d="M816.74 556.09L804.68 695.4" stroke="hsl(201, 82.5%, 58.4%)" stroke-width="1.5"></path><path d="M816.74 556.09L841.97 410.29" stroke="hsl(201, 82.5%, 58.4%)" stroke-width="1.5"></path><path d="M816.74 556.09L980.97 490.68" stroke="hsl(201, 82.5%, 58.4%)" stroke-width="1.5"></path><path d="M804.68 695.4L804.68 695.4" stroke="hsl(201, 82.5%, 58.4%)" stroke-width="1.5"></path><path d="M804.68 695.4L700.41 526.82" stroke="hsl(201, 82.5%, 58.4%)" stroke-width="1.5"></path><path d="M804.68 695.4L980.97 490.68" stroke="hsl(201, 82.5%, 58.4%)" stroke-width="1.5"></path><path d="M962.67 372.26L962.67 372.26" stroke="hsl(201, 82.5%, 58.4%)" stroke-width="1.5"></path><path d="M962.67 372.26L1140.13 386.88" stroke="hsl(201, 82.5%, 58.4%)" stroke-width="1.5"></path><path d="M1162.34 71.46L1162.34 71.46" stroke="hsl(201, 82.5%, 58.4%)" stroke-width="1.5"></path><path d="M1162.34 71.46L1262.61 94.09" stroke="hsl(201, 82.5%, 58.4%)" stroke-width="1.5"></path><path d="M1162.34 71.46L1127.83 247.17" stroke="hsl(201, 82.5%, 58.4%)" stroke-width="1.5"></path><path d="M1162.34 71.46L1312.02 -64.19" stroke="hsl(201, 82.5%, 58.4%)" stroke-width="1.5"></path><path d="M1162.34 71.46L1288.8 237.9" stroke="hsl(201, 82.5%, 58.4%)" stroke-width="1.5"></path><path d="M1162.34 71.46L1424.3 -60.59" stroke="hsl(201, 82.5%, 58.4%)" stroke-width="1.5"></path><path d="M1162.34 71.46L1411.45 228.34" stroke="hsl(201, 82.5%, 58.4%)" stroke-width="1.5"></path><path d="M1127.83 247.17L1127.83 247.17" stroke="hsl(201, 82.5%, 58.4%)" stroke-width="1.5"></path><path d="M1127.83 247.17L1140.13 386.88" stroke="hsl(201, 82.5%, 58.4%)" stroke-width="1.5"></path><path d="M1127.83 247.17L1288.8 237.9" stroke="hsl(201, 82.5%, 58.4%)" stroke-width="1.5"></path><path d="M1127.83 247.17L1263.23 361.7" stroke="hsl(201, 82.5%, 58.4%)" stroke-width="1.5"></path><path d="M1140.13 386.88L1140.13 386.88" stroke="hsl(201, 82.5%, 58.4%)" stroke-width="1.5"></path><path d="M1140.13 386.88L1263.23 361.7" stroke="hsl(201, 82.5%, 58.4%)" stroke-width="1.5"></path><path d="M1140.13 386.88L1096.28 522.37" stroke="hsl(201, 82.5%, 58.4%)" stroke-width="1.5"></path><path d="M1140.13 386.88L980.97 490.68" stroke="hsl(201, 82.5%, 58.4%)" stroke-width="1.5"></path><path d="M1096.28 522.37L1096.28 522.37" stroke="hsl(201, 82.5%, 58.4%)" stroke-width="1.5"></path><path d="M1096.28 522.37L1092.81 656.57" stroke="hsl(201, 82.5%, 58.4%)" stroke-width="1.5"></path><path d="M1096.28 522.37L1281.25 560.64" stroke="hsl(201, 82.5%, 58.4%)" stroke-width="1.5"></path><path d="M1096.28 522.37L962.67 372.26" stroke="hsl(201, 82.5%, 58.4%)" stroke-width="1.5"></path><path d="M1092.81 656.57L1092.81 656.57" stroke="hsl(201, 82.5%, 58.4%)" stroke-width="1.5"></path><path d="M1092.81 656.57L980.97 490.68" stroke="hsl(201, 82.5%, 58.4%)" stroke-width="1.5"></path><path d="M1312.02 -64.19L1312.02 -64.19" stroke="hsl(201, 82.5%, 58.4%)" stroke-width="1.5"></path><path d="M1312.02 -64.19L1424.3 -60.59" stroke="hsl(201, 82.5%, 58.4%)" stroke-width="1.5"></path><path d="M1312.02 -64.19L1262.61 94.09" stroke="hsl(201, 82.5%, 58.4%)" stroke-width="1.5"></path><path d="M1312.02 -64.19L1457.01 46.67" stroke="hsl(201, 82.5%, 58.4%)" stroke-width="1.5"></path><path d="M1262.61 94.09L1262.61 94.09" stroke="hsl(201, 82.5%, 58.4%)" stroke-width="1.5"></path><path d="M1288.8 237.9L1288.8 237.9" stroke="hsl(201, 82.5%, 58.4%)" stroke-width="1.5"></path><path d="M1288.8 237.9L1411.45 228.34" stroke="hsl(201, 82.5%, 58.4%)" stroke-width="1.5"></path><path d="M1288.8 237.9L1263.23 361.7" stroke="hsl(201, 82.5%, 58.4%)" stroke-width="1.5"></path><path d="M1288.8 237.9L1262.61 94.09" stroke="hsl(201, 82.5%, 58.4%)" stroke-width="1.5"></path><path d="M1263.23 361.7L1263.23 361.7" stroke="hsl(201, 82.5%, 58.4%)" stroke-width="1.5"></path><path d="M1281.25 560.64L1281.25 560.64" stroke="hsl(201, 82.5%, 58.4%)" stroke-width="1.5"></path><path d="M1281.25 560.64L1292.28 689.62" stroke="hsl(201, 82.5%, 58.4%)" stroke-width="1.5"></path><path d="M1292.28 689.62L1292.28 689.62" stroke="hsl(201, 82.5%, 58.4%)" stroke-width="1.5"></path><path d="M1292.28 689.62L1439.72 662.82" stroke="hsl(201, 82.5%, 58.4%)" stroke-width="1.5"></path><path d="M1424.3 -60.59L1424.3 -60.59" stroke="hsl(201, 82.5%, 58.4%)" stroke-width="1.5"></path><path d="M1424.3 -60.59L1457.01 46.67" stroke="hsl(201, 82.5%, 58.4%)" stroke-width="1.5"></path><path d="M1457.01 46.67L1457.01 46.67" stroke="hsl(201, 82.5%, 58.4%)" stroke-width="1.5"></path><path d="M1457.01 46.67L1411.45 228.34" stroke="hsl(201, 82.5%, 58.4%)" stroke-width="1.5"></path><path d="M1411.45 228.34L1411.45 228.34" stroke="hsl(201, 82.5%, 58.4%)" stroke-width="1.5"></path><path d="M1411.45 228.34L1585.96 243.36" stroke="hsl(201, 82.5%, 58.4%)" stroke-width="1.5"></path><path d="M1411.45 228.34L1561.05 356.4" stroke="hsl(201, 82.5%, 58.4%)" stroke-width="1.5"></path><path d="M1399.47 495.15L1399.47 495.15" stroke="hsl(201, 82.5%, 58.4%)" stroke-width="1.5"></path><path d="M1399.47 495.15L1281.25 560.64" stroke="hsl(201, 82.5%, 58.4%)" stroke-width="1.5"></path><path d="M1399.47 495.15L1543.41 510.44" stroke="hsl(201, 82.5%, 58.4%)" stroke-width="1.5"></path><path d="M1399.47 495.15L1439.72 662.82" stroke="hsl(201, 82.5%, 58.4%)" stroke-width="1.5"></path><path d="M1399.47 495.15L1263.23 361.7" stroke="hsl(201, 82.5%, 58.4%)" stroke-width="1.5"></path><path d="M1399.47 495.15L1561.05 356.4" stroke="hsl(201, 82.5%, 58.4%)" stroke-width="1.5"></path><path d="M1439.72 662.82L1439.72 662.82" stroke="hsl(201, 82.5%, 58.4%)" stroke-width="1.5"></path><path d="M1439.72 662.82L1560.7 664.57" stroke="hsl(201, 82.5%, 58.4%)" stroke-width="1.5"></path><path d="M1439.72 662.82L1543.41 510.44" stroke="hsl(201, 82.5%, 58.4%)" stroke-width="1.5"></path><path d="M1439.72 662.82L1281.25 560.64" stroke="hsl(201, 82.5%, 58.4%)" stroke-width="1.5"></path><path d="M1585.96 243.36L1585.96 243.36" stroke="hsl(201, 82.5%, 58.4%)" stroke-width="1.5"></path><path d="M1585.96 243.36L1561.05 356.4" stroke="hsl(201, 82.5%, 58.4%)" stroke-width="1.5"></path><path d="M1561.05 356.4L1561.05 356.4" stroke="hsl(201, 82.5%, 58.4%)" stroke-width="1.5"></path><path d="M1561.05 356.4L1543.41 510.44" stroke="hsl(201, 82.5%, 58.4%)" stroke-width="1.5"></path><path d="M1543.41 510.44L1543.41 510.44" stroke="hsl(201, 82.5%, 58.4%)" stroke-width="1.5"></path><path d="M1543.41 510.44L1560.7 664.57" stroke="hsl(201, 82.5%, 58.4%)" stroke-width="1.5"></path><path d="M1560.7 664.57L1560.7 664.57" stroke="hsl(201, 82.5%, 58.4%)" stroke-width="1.5"></path><path d="M1560.7 664.57L1399.47 495.15" stroke="hsl(201, 82.5%, 58.4%)" stroke-width="1.5"></path><circle r="25" cx="-40.58" cy="707.95" fill="url(#SvgjsRadialGradient1007)"></circle><circle r="25" cx="560.97" cy="501.58" fill="url(#SvgjsRadialGradient1007)"></circle><circle r="25" cx="711.23" cy="380.1" fill="url(#SvgjsRadialGradient1007)"></circle><circle r="25" cx="980.97" cy="490.68" fill="url(#SvgjsRadialGradient1007)"></circle><circle r="25" cx="1009.72" cy="641.39" fill="url(#SvgjsRadialGradient1007)"></circle><circle r="25" cx="1426" cy="347.52" fill="url(#SvgjsRadialGradient1007)"></circle><circle r="25" cx="1585.17" cy="71.66" fill="url(#SvgjsRadialGradient1007)"></circle><circle r="5" cx="-41.19" cy="549.07" fill="#8ac7e8"></circle><circle r="5" cx="67.59" cy="539.66" fill="#8ac7e8"></circle><circle r="5" cx="105.57" cy="687.86" fill="#8ac7e8"></circle><circle r="5" cx="196.4" cy="489.57" fill="#8ac7e8"></circle><circle r="5" cx="209.4" cy="706.18" fill="#8ac7e8"></circle><circle r="5" cx="352.08" cy="548.82" fill="#8ac7e8"></circle><circle r="5" cx="387.73" cy="704.94" fill="#8ac7e8"></circle><circle r="5" cx="524.6" cy="676.31" fill="#8ac7e8"></circle><circle r="5" cx="700.41" cy="526.82" fill="#8ac7e8"></circle><circle r="5" cx="705.82" cy="661.51" fill="#8ac7e8"></circle><circle r="5" cx="841.97" cy="410.29" fill="#8ac7e8"></circle><circle r="5" cx="816.74" cy="556.09" fill="#8ac7e8"></circle><circle r="5" cx="804.68" cy="695.4" fill="#8ac7e8"></circle><circle r="5" cx="962.67" cy="372.26" fill="#8ac7e8"></circle><circle r="5" cx="1162.34" cy="71.46" fill="#8ac7e8"></circle><circle r="5" cx="1127.83" cy="247.17" fill="#8ac7e8"></circle><circle r="5" cx="1140.13" cy="386.88" fill="#8ac7e8"></circle><circle r="5" cx="1096.28" cy="522.37" fill="#8ac7e8"></circle><circle r="5" cx="1092.81" cy="656.57" fill="#8ac7e8"></circle><circle r="5" cx="1312.02" cy="-64.19" fill="#8ac7e8"></circle><circle r="5" cx="1262.61" cy="94.09" fill="#8ac7e8"></circle><circle r="5" cx="1288.8" cy="237.9" fill="#8ac7e8"></circle><circle r="5" cx="1263.23" cy="361.7" fill="#8ac7e8"></circle><circle r="5" cx="1281.25" cy="560.64" fill="#8ac7e8"></circle><circle r="5" cx="1292.28" cy="689.62" fill="#8ac7e8"></circle><circle r="5" cx="1424.3" cy="-60.59" fill="#8ac7e8"></circle><circle r="5" cx="1457.01" cy="46.67" fill="#8ac7e8"></circle><circle r="5" cx="1411.45" cy="228.34" fill="#8ac7e8"></circle><circle r="5" cx="1399.47" cy="495.15" fill="#8ac7e8"></circle><circle r="5" cx="1439.72" cy="662.82" fill="#8ac7e8"></circle><circle r="5" cx="1585.96" cy="243.36" fill="#8ac7e8"></circle><circle r="5" cx="1561.05" cy="356.4" fill="#8ac7e8"></circle><circle r="5" cx="1543.41" cy="510.44" fill="#8ac7e8"></circle><circle r="5" cx="1560.7" cy="664.57" fill="#8ac7e8"></circle></g><defs><mask id="SvgjsMask1006"><rect width="1440" height="560" fill="#ffffff"></rect></mask><radialGradient id="SvgjsRadialGradient1007"><stop stop-color="#ffffff" offset="0.1"></stop><stop stop-color="rgba(20, 143, 209, 1)" offset="0.2"></stop><stop stop-color="rgba(20, 143, 209, 0)" offset="1"></stop></radialGradient></defs></svg>