<svg xmlns="http://www.w3.org/2000/svg" version="1.1" xmlns:xlink="http://www.w3.org/1999/xlink" xmlns:svgjs="http://svgjs.com/svgjs" width="1440" height="560" preserveAspectRatio="none" viewBox="0 0 1440 560"><g mask="url(&quot;#SvgjsMask1002&quot;)" fill="none"><rect width="1440" height="560" x="0" y="0" fill="url(#SvgjsLinearGradient1003)"></rect><path d="M1440 0L748.24 0L1440 154.43z" fill="rgba(255, 255, 255, .1)"></path><path d="M748.24 0L1440 154.43L1440 269L368.25 0z" fill="rgba(255, 255, 255, .075)"></path><path d="M368.25 0L1440 269L1440 289.01L188.15 0z" fill="rgba(255, 255, 255, .05)"></path><path d="M188.1500000000001 0L1440 289.01L1440 346.69L130.4000000000001 0z" fill="rgba(255, 255, 255, .025)"></path><path d="M0 560L490 560L0 464.45z" fill="rgba(0, 0, 0, .1)"></path><path d="M0 464.45L490 560L575.58 560L0 328.67999999999995z" fill="rgba(0, 0, 0, .075)"></path><path d="M0 328.68L575.58 560L679.1600000000001 560L0 169.98000000000002z" fill="rgba(0, 0, 0, .05)"></path><path d="M0 169.98000000000002L679.1600000000001 560L734.09 560L0 53.130000000000024z" fill="rgba(0, 0, 0, .025)"></path></g><defs><mask id="SvgjsMask1002"><rect width="1440" height="560" fill="#ffffff"></rect></mask><linearGradient x1="15.28%" y1="-39.29%" x2="84.72%" y2="139.29%" gradientUnits="userSpaceOnUse" id="SvgjsLinearGradient1003"><stop stop-color="#0e2a47" offset="0"></stop><stop stop-color="#00459e" offset="1"></stop></linearGradient></defs></svg>